<svg width="249" height="167" viewBox="0 0 249 167" fill="none" xmlns="http://www.w3.org/2000/svg">
    <path opacity="0.2" d="M126 10.8955C104.194 7.60931 59.0826 11.5754 53.0859 53.7297C45.59 106.423 32.3019 123.76 3 119.34" stroke="#13C2C2" stroke-width="5" stroke-linecap="round"/>
    <path fill-rule="evenodd" clip-rule="evenodd" d="M8.60001 0C11.7 0 14.2 2.50462 14.2 5.61035C14.2 8.71608 11.7 11.2207 8.60001 11.2207C5.5 11.2207 3 8.71608 3 5.61035C3 2.50462 5.5 0 8.60001 0Z" fill="#08979C"/>
    <path d="M242.2 8L243.8 16.9163L248.6 24.6305L240.1 21.5248L231 21.9255L237.9 16.0147L242.2 8Z" fill="#08979C"/>
    <path d="M62.1638 139.294C61.4638 139.294 60.7638 139.093 60.0638 138.693L55.1638 135.988C54.1638 135.387 53.4638 134.485 53.1638 133.383C52.8638 132.281 52.9638 131.079 53.5638 130.077L56.3638 125.168C56.9638 124.166 57.8638 123.465 58.9638 123.164C60.0638 122.864 61.1638 122.964 62.1638 123.565L67.0638 126.37C69.1638 127.572 69.8638 130.177 68.6638 132.281L65.9638 137.09C65.1638 138.492 63.6638 139.294 62.1638 139.294ZM60.0638 125.969C59.9638 125.969 59.8638 125.969 59.6638 125.969C59.3638 126.069 59.0638 126.37 58.9638 126.671L56.1638 131.58C55.9638 131.88 55.9638 132.181 55.9638 132.581C56.0638 132.882 56.2638 133.182 56.5638 133.383L61.4638 136.188C62.0638 136.589 62.8638 136.288 63.2638 135.687L66.0638 130.778C66.4638 130.177 66.1638 129.376 65.5638 128.975L60.6638 126.17C60.4638 126.069 60.2638 125.969 60.0638 125.969Z" fill="#08979C"/>
    <path fill-rule="evenodd" clip-rule="evenodd" d="M23.0001 156.009H19V152.002C19 151.401 18.6 151 18 151H15C14.4 151 14 151.401 14 152.002V156.009H10C9.4 156.009 9 156.41 9 157.011V160.017C9 160.618 9.4 161.018 10 161.018H14V165.026C14 165.627 14.4 166.028 15 166.028H18C18.6 166.028 19 165.627 19 165.026V161.018H23.0001C23.6001 161.018 24.0001 160.618 24.0001 160.017V157.011C24.0001 156.41 23.6001 156.009 23.0001 156.009Z" fill="#08979C"/>
</svg>
