<svg width="322" height="184" viewBox="0 0 322 184" fill="none" xmlns="http://www.w3.org/2000/svg">
    <path opacity="0.2" d="M183 15.0007C151 10.1674 84.8 16.0007 76 78.0007C65 155.501 45.5 181 2.5 174.5" stroke="#13C2C2" stroke-width="5" stroke-linecap="round"/>
    <path fill-rule="evenodd" clip-rule="evenodd" d="M53.6 0C56.7 0 59.2 2.50462 59.2 5.61035C59.2 8.71608 56.7 11.2207 53.6 11.2207C50.5 11.2207 48 8.71608 48 5.61035C48 2.50462 50.5 0 53.6 0Z" fill="#08979C"/>
    <path d="M315.2 14L316.8 22.9163L321.6 30.6305L313.1 27.5248L304 27.9255L310.9 22.0147L315.2 14Z" fill="#08979C"/>
    <path d="M153.164 183.294C152.464 183.294 151.764 183.093 151.064 182.693L146.164 179.988C145.164 179.387 144.464 178.485 144.164 177.383C143.864 176.281 143.964 175.079 144.564 174.077L147.364 169.168C147.964 168.166 148.864 167.465 149.964 167.164C151.064 166.864 152.164 166.964 153.164 167.565L158.064 170.37C160.164 171.572 160.864 174.177 159.664 176.281L156.964 181.09C156.164 182.492 154.664 183.294 153.164 183.294ZM151.064 169.969C150.964 169.969 150.864 169.969 150.664 169.969C150.364 170.069 150.064 170.37 149.964 170.671L147.164 175.58C146.964 175.88 146.964 176.181 146.964 176.581C147.064 176.882 147.264 177.182 147.564 177.383L152.464 180.188C153.064 180.589 153.864 180.288 154.264 179.687L157.064 174.778C157.464 174.177 157.164 173.376 156.564 172.975L151.664 170.17C151.464 170.069 151.264 169.969 151.064 169.969Z" fill="#08979C"/>
    <path fill-rule="evenodd" clip-rule="evenodd" d="M19.0001 132.009H15V128.002C15 127.401 14.6 127 14 127H11C10.4 127 10 127.401 10 128.002V132.009H6C5.4 132.009 5 132.41 5 133.011V136.017C5 136.618 5.4 137.018 6 137.018H10V141.026C10 141.627 10.4 142.028 11 142.028H14C14.6 142.028 15 141.627 15 141.026V137.018H19.0001C19.6001 137.018 20.0001 136.618 20.0001 136.017V133.011C20.0001 132.41 19.6001 132.009 19.0001 132.009Z" fill="#08979C"/>
</svg>
